<svg width="20" height="24" viewBox="0 0 20 24" fill="none" xmlns="http://www.w3.org/2000/svg">
<path d="M7.8023 5.04167L8.45473 6.85355C9.17948 8.86449 10.763 10.448 12.774 11.1728L14.5859 11.8252C14.7492 11.8845 14.7492 12.1161 14.5859 12.1746L12.774 12.827C10.763 13.5518 9.17948 15.1354 8.45473 17.1463L7.8023 18.9582C7.74298 19.1215 7.51142 19.1215 7.45292 18.9582L6.80048 17.1463C6.07573 15.1354 4.49217 13.5518 2.48123 12.827L0.669359 12.1746C0.506047 12.1153 0.506047 11.8837 0.669359 11.8252L2.48123 11.1728C4.49217 10.448 6.07573 8.86449 6.80048 6.85355L7.45292 5.04167C7.51142 4.87755 7.74298 4.87755 7.8023 5.04167Z" fill="#1351D8"/>
<path d="M15.9577 0.687521L16.2884 1.60483C16.6557 2.6229 17.4576 3.42483 18.4757 3.79208L19.393 4.12277C19.4759 4.15283 19.4759 4.26983 19.393 4.2999L18.4757 4.63058C17.4576 4.99783 16.6557 5.79977 16.2884 6.81783L15.9577 7.73515C15.9277 7.81802 15.8107 7.81802 15.7806 7.73515L15.4499 6.81783C15.0827 5.79977 14.2807 4.99783 13.2627 4.63058L12.3454 4.2999C12.2625 4.26983 12.2625 4.15283 12.3454 4.12277L13.2627 3.79208C14.2807 3.42483 15.0827 2.6229 15.4499 1.60483L15.7806 0.687521C15.8107 0.603834 15.9285 0.603834 15.9577 0.687521Z" fill="#1351D8"/>
<path d="M15.9577 16.2655L16.2884 17.1828C16.6557 18.2009 17.4576 19.0028 18.4757 19.3701L19.393 19.7008C19.4759 19.7308 19.4759 19.8478 19.393 19.8779L18.4757 20.2086C17.4576 20.5758 16.6557 21.3778 16.2884 22.3958L15.9577 23.3132C15.9277 23.396 15.8107 23.396 15.7806 23.3132L15.4499 22.3958C15.0827 21.3778 14.2807 20.5758 13.2627 20.2086L12.3454 19.8779C12.2625 19.8478 12.2625 19.7308 12.3454 19.7008L13.2627 19.3701C14.2807 19.0028 15.0827 18.2009 15.4499 17.1828L15.7806 16.2655C15.8107 16.1827 15.9285 16.1827 15.9577 16.2655Z" fill="#1351D8"/>
</svg>
