<svg width="25" height="25" viewBox="0 0 25 25" fill="none" xmlns="http://www.w3.org/2000/svg">
<path d="M5.89939 24.4642H18.6361C19.9873 24.4642 21.2832 23.9047 22.2386 22.9088C23.1941 21.9129 23.7308 20.5621 23.7308 19.1536V12.7145C23.7308 12.3624 23.5966 12.0247 23.3578 11.7757C23.1189 11.5267 22.795 11.3868 22.4572 11.3868C22.1194 11.3868 21.7954 11.5267 21.5565 11.7757C21.3177 12.0247 21.1835 12.3624 21.1835 12.7145V19.1536C21.1835 19.8578 20.9151 20.5332 20.4374 21.0312C19.9597 21.5292 19.3117 21.8089 18.6361 21.8089H5.89939C5.22379 21.8089 4.57586 21.5292 4.09814 21.0312C3.62042 20.5332 3.35204 19.8578 3.35204 19.1536V5.87704C3.35204 5.1728 3.62042 4.49741 4.09814 3.99944C4.57586 3.50148 5.22379 3.22172 5.89939 3.22172H12.2678C12.6056 3.22172 12.9295 3.08184 13.1684 2.83286C13.4072 2.58387 13.5414 2.24618 13.5414 1.89406C13.5414 1.54195 13.4072 1.20425 13.1684 0.955268C12.9295 0.706284 12.6056 0.566406 12.2678 0.566406H5.89939C4.54819 0.566406 3.25233 1.12592 2.29689 2.12185C1.34145 3.11779 0.804688 4.46857 0.804688 5.87704V19.1536C0.804688 20.5621 1.34145 21.9129 2.29689 22.9088C3.25233 23.9047 4.54819 24.4642 5.89939 24.4642Z" fill="#0C848C"/>
<path d="M22.8269 2.27912L12.2681 13.2987L8.07773 8.91741C7.83789 8.66741 7.5126 8.52696 7.17342 8.52696C6.83424 8.52696 6.50895 8.66741 6.26911 8.91741C6.02927 9.16742 5.89453 9.50649 5.89453 9.86005C5.89453 10.0351 5.92761 10.2085 5.99188 10.3702C6.05615 10.5319 6.15035 10.6789 6.26911 10.8027L11.3638 16.1133C11.4822 16.2378 11.6231 16.3365 11.7783 16.4039C11.9335 16.4713 12.1 16.506 12.2681 16.506C12.4363 16.506 12.6027 16.4713 12.7579 16.4039C12.9131 16.3365 13.054 16.2378 13.1724 16.1133L24.6355 4.1644C24.8753 3.9144 25.0101 3.57532 25.0101 3.22176C25.0101 2.8682 24.8753 2.52913 24.6355 2.27912C24.3957 2.02912 24.0704 1.88867 23.7312 1.88867C23.392 1.88867 23.0667 2.02912 22.8269 2.27912Z" fill="#0C848C"/>
</svg>
